<svg width="1440" height="200" viewBox="0 0 1440 200" fill="none" xmlns="http://www.w3.org/2000/svg" preserveAspectRatio="none">
  <path d="M0,64 C240,120 480,40 720,80 C960,120 1200,40 1440,96 L1440,200 L0,200 Z" fill="url(#wave-gradient)" opacity="0.3"/>
  <path d="M0,96 C240,40 480,120 720,64 C960,20 1200,100 1440,48 L1440,200 L0,200 Z" fill="url(#wave-gradient)" opacity="0.5"/>
  <path d="M0,128 C240,80 480,160 720,120 C960,80 1200,140 1440,100 L1440,200 L0,200 Z" fill="url(#wave-gradient)"/>
  <defs>
    <linearGradient id="wave-gradient" x1="0%" y1="0%" x2="100%" y2="0%">
      <stop offset="0%" style="stop-color:#4F46E5;stop-opacity:1" />
      <stop offset="50%" style="stop-color:#7C3AED;stop-opacity:1" />
      <stop offset="100%" style="stop-color:#2563EB;stop-opacity:1" />
    </linearGradient>
  </defs>
</svg>

